<svg fill="none" height="20" viewBox="0 0 20 20" width="20" xmlns="http://www.w3.org/2000/svg"><path clip-rule="evenodd" d="m9.99908 0c-5.52135 0-9.99908 4.49352-9.99908 10.0369 0 4.4344 2.86504 8.1959 6.83876 9.5231.50032.0924.68265-.2175.68265-.4837 0-.2378-.0086-.8693-.01351-1.7067-2.78154.6063-3.36842-1.3456-3.36842-1.3456-.4549-1.1596-1.11054-1.4683-1.11054-1.4683-.90794-.6223.06876-.61.06876-.61 1.00372.0709 1.53166 1.0345 1.53166 1.0345.89199 1.5336 2.34077 1.0906 2.91047.8337.09085-.6482.3493-1.0906.63476-1.3414-2.22045-.2532-4.55508-1.1146-4.55508-4.96051 0-1.0955.38982-1.99199 1.0295-2.69316-.10314-.25385-.4463-1.27479.09822-2.65618 0 0 .83919-.26987 2.74962 1.02895.79745-.22304 1.65322-.33394 2.50345-.33826.8496.00432 1.7048.11522 2.5035.33826 1.9092-1.29882 2.7471-1.02895 2.7471-1.02895.5458 1.38139.2026 2.40233.1001 2.65618.6409.70117 1.0276 1.59766 1.0276 2.69316 0 3.85581-2.3383 4.70421-4.5655 4.95251.3585.3099.6784.9224.6784 1.8589 0 1.3414-.0123 2.4239-.0123 2.7529 0 .2687.1805.5811.6876.4831 3.9706-1.3302 6.8332-5.0893 6.8332-9.5225 0-5.54338-4.4777-10.0369-10.00092-10.0369z" fill="#333" fill-rule="evenodd"/></svg>